<svg width="10" height="16" viewBox="0 0 10 16" fill="none" xmlns="http://www.w3.org/2000/svg">
<path d="M1.53417 0.970143C1.32655 0.966293 1.12287 1.02707 0.951312 1.14406C0.779753 1.26105 0.648799 1.42848 0.57657 1.62316C0.504341 1.81785 0.494409 2.03017 0.548149 2.23075C0.601889 2.43133 0.716644 2.61025 0.876533 2.74274L6.99559 7.98117L0.872753 13.2196C0.760895 13.3011 0.667154 13.405 0.597446 13.5246C0.527738 13.6442 0.483577 13.7769 0.46775 13.9144C0.451923 14.0519 0.464773 14.1912 0.50549 14.3235C0.546207 14.4559 0.613906 14.5783 0.704316 14.6831C0.794725 14.7879 0.905881 14.8729 1.03077 14.9326C1.15566 14.9923 1.29156 15.0254 1.42992 15.03C1.56827 15.0345 1.70605 15.0103 1.83459 14.9589C1.96312 14.9075 2.0796 14.8301 2.17669 14.7314L9.17638 8.74841C9.28646 8.65438 9.37485 8.53761 9.43545 8.40613C9.49606 8.27466 9.52745 8.13161 9.52745 7.98684C9.52745 7.84206 9.49606 7.69901 9.43545 7.56754C9.37485 7.43606 9.28646 7.31929 9.17638 7.22526L2.17669 1.22337C1.99931 1.06546 1.77159 0.975708 1.53417 0.970143Z" fill="black"/>
</svg>
