<svg width="24" height="24" viewBox="0 0 24 24" fill="none" xmlns="http://www.w3.org/2000/svg">
<path d="M12.0004 0C5.37517 0 0.000370026 5.36802 0.000370026 11.9937C0.000370026 18.6257 5.37517 24 12.0003 24C18.6292 24 23.9994 18.6256 23.9994 11.9937C23.9995 5.36802 18.6292 0 12.0004 0ZM12.8555 18.6708C12.5768 18.9188 12.2538 19.0435 11.8879 19.0435C11.5093 19.0435 11.1791 18.9211 10.8973 18.6758C10.6149 18.4309 10.4735 18.0881 10.4735 17.6476C10.4735 17.2568 10.6104 16.928 10.8832 16.6614C11.1561 16.3949 11.4908 16.2616 11.8879 16.2616C12.2787 16.2616 12.6075 16.3949 12.8745 16.6614C13.1411 16.928 13.2748 17.2568 13.2748 17.6476C13.2743 18.0817 13.1347 18.4228 12.8555 18.6708ZM16.3307 10.0553C16.1166 10.4523 15.8623 10.7947 15.5673 11.0834C15.2732 11.3721 14.7443 11.8573 13.9808 12.5394C13.7703 12.7318 13.6009 12.9008 13.4739 13.0462C13.347 13.1922 13.2522 13.3254 13.1902 13.4465C13.13 13.5623 13.0818 13.684 13.0461 13.8096C13.0122 13.9302 12.9612 14.143 12.8921 14.447C12.7747 15.0921 12.4056 15.4146 11.7853 15.4146C11.4628 15.4146 11.1917 15.3094 10.9708 15.0984C10.7508 14.8874 10.6411 14.5744 10.6411 14.1588C10.6411 13.638 10.7219 13.1866 10.8832 12.805C11.0436 12.4232 11.2581 12.0885 11.5247 11.7998C11.7917 11.5112 12.1512 11.1687 12.6043 10.7717C13.0014 10.4243 13.2883 10.1623 13.4649 9.98563C13.6405 9.81044 13.7907 9.61156 13.9112 9.39476C14.0327 9.17747 14.0924 8.94211 14.0924 8.68781C14.0924 8.19136 13.9085 7.77305 13.539 7.43199C13.17 7.09094 12.6938 6.92016 12.1106 6.92016C11.428 6.92016 10.9257 7.09227 10.6032 7.4365C10.2806 7.78072 10.0082 8.28756 9.7846 8.95751C9.57319 9.65863 9.17295 10.0091 8.58431 10.0091C8.23691 10.0091 7.94376 9.88671 7.70479 9.64185C7.46627 9.39699 7.347 9.13184 7.347 8.84636C7.347 8.25727 7.53629 7.66007 7.91441 7.0552C8.29299 6.45033 8.84501 5.94933 9.57092 5.5527C10.2964 5.15562 11.1434 4.95683 12.1106 4.95683C13.01 4.95683 13.8037 5.12305 14.4922 5.45511C15.1806 5.78666 15.7128 6.23798 16.0882 6.80895C16.4631 7.37948 16.651 7.99974 16.651 8.66969C16.6519 9.19603 16.5449 9.65819 16.3307 10.0553Z" fill="black" fill-opacity="0.75"/>
</svg>
