<svg width="24" height="22" viewBox="0 0 24 22" fill="none" xmlns="http://www.w3.org/2000/svg">
<path d="M21.9075 7.88011C21.4699 7.81654 21.0522 7.65507 20.6856 7.40771C20.319 7.16034 20.013 6.83347 19.7903 6.45143C19.5675 6.06939 19.4338 5.64202 19.3992 5.20116C19.3645 4.76029 19.4297 4.31728 19.59 3.90511C19.6919 3.63566 19.7069 3.34107 19.6329 3.06266C19.5589 2.78424 19.3997 2.53596 19.1775 2.35261C18.1965 1.52886 17.0799 0.881745 15.8775 0.440113C15.6037 0.338401 15.3048 0.325692 15.0233 0.403799C14.7419 0.481906 14.4922 0.646843 14.31 0.875113C14.0357 1.22585 13.6851 1.50953 13.2849 1.70462C12.8847 1.89972 12.4453 2.00111 12 2.00111C11.5547 2.00111 11.1153 1.89972 10.7151 1.70462C10.3149 1.50953 9.96429 1.22585 9.69 0.875113C9.50777 0.646843 9.25814 0.481906 8.97669 0.403799C8.69523 0.325692 8.39631 0.338401 8.1225 0.440113C7.01225 0.847845 5.97419 1.43017 5.0475 2.16511C4.81391 2.35004 4.64566 2.60489 4.56738 2.89235C4.4891 3.17981 4.50492 3.48479 4.6125 3.76261C4.78557 4.18568 4.85707 4.64342 4.82128 5.09911C4.78549 5.55481 4.6434 5.99577 4.4064 6.38663C4.16941 6.77749 3.84411 7.10736 3.4566 7.34979C3.06908 7.59222 2.63015 7.74046 2.175 7.78261C1.87951 7.81421 1.60196 7.93984 1.38323 8.14102C1.1645 8.3422 1.01615 8.60829 0.960001 8.90011C0.820349 9.59139 0.750001 10.2949 0.750001 11.0001C0.748975 11.5905 0.796636 12.18 0.892501 12.7626C0.940212 13.0638 1.08581 13.3409 1.30679 13.551C1.52776 13.7611 1.8118 13.8926 2.115 13.9251C2.58015 13.9688 3.02807 14.1232 3.42128 14.3755C3.81449 14.6278 4.14155 14.9706 4.37507 15.3752C4.6086 15.7799 4.74181 16.2346 4.76354 16.7012C4.78528 17.1679 4.69491 17.633 4.5 18.0576C4.37245 18.3338 4.34081 18.6447 4.4101 18.9409C4.4794 19.2371 4.64567 19.5017 4.8825 19.6926C5.85759 20.5014 6.96343 21.138 8.1525 21.5751C8.30456 21.6278 8.4641 21.6556 8.625 21.6576C8.84563 21.6571 9.06292 21.6038 9.25867 21.502C9.45441 21.4002 9.6229 21.253 9.75 21.0726C10.0173 20.6831 10.3756 20.3648 10.7939 20.1452C11.2121 19.9257 11.6776 19.8115 12.15 19.8126C12.6077 19.8132 13.0589 19.9206 13.4678 20.1263C13.8766 20.3321 14.2318 20.6304 14.505 20.9976C14.6867 21.2419 14.9442 21.4192 15.2372 21.502C15.5302 21.5847 15.8423 21.5682 16.125 21.4551C17.2123 21.0175 18.2245 20.4127 19.125 19.6626C19.3512 19.4756 19.5123 19.2216 19.5851 18.9373C19.6578 18.6529 19.6386 18.3528 19.53 18.0801C19.3536 17.6625 19.2767 17.2096 19.3053 16.7572C19.334 16.3047 19.4674 15.8651 19.695 15.4731C19.9227 15.0811 20.2384 14.7473 20.6171 14.4982C20.9959 14.2491 21.4274 14.0914 21.8775 14.0376C22.1694 13.9972 22.4408 13.865 22.6526 13.66C22.8643 13.4551 23.0052 13.188 23.055 12.8976C23.1755 12.272 23.2407 11.6371 23.25 11.0001C23.2501 10.3282 23.1874 9.6578 23.0625 8.99761C23.0119 8.71359 22.873 8.45274 22.6657 8.25213C22.4583 8.05152 22.193 7.92135 21.9075 7.88011ZM15.75 11.0001C15.75 11.7418 15.5301 12.4668 15.118 13.0835C14.706 13.7002 14.1203 14.1808 13.4351 14.4647C12.7498 14.7485 11.9958 14.8228 11.2684 14.6781C10.541 14.5334 9.8728 14.1762 9.34835 13.6518C8.8239 13.1273 8.46675 12.4591 8.32206 11.7317C8.17736 11.0043 8.25162 10.2503 8.53545 9.56505C8.81928 8.87983 9.29993 8.29416 9.91661 7.8821C10.5333 7.47005 11.2583 7.25011 12 7.25011C12.9946 7.25011 13.9484 7.6452 14.6516 8.34846C15.3549 9.05172 15.75 10.0056 15.75 11.0001Z" fill="black" fill-opacity="0.75"/>
</svg>
