<svg width="25" height="24" viewBox="0 0 25 24" fill="none" xmlns="http://www.w3.org/2000/svg">
<path d="M12.625 15C14.2819 15 15.625 13.6569 15.625 12C15.625 10.3431 14.2819 9 12.625 9C10.9681 9 9.625 10.3431 9.625 12C9.625 13.6569 10.9681 15 12.625 15Z" stroke="#8D8DA6" stroke-width="2" stroke-miterlimit="10" stroke-linecap="round" stroke-linejoin="round"/>
<path d="M2.625 12.8799V11.1199C2.625 10.0799 3.475 9.21994 4.525 9.21994C6.335 9.21994 7.075 7.93994 6.165 6.36994C5.645 5.46994 5.955 4.29994 6.865 3.77994L8.595 2.78994C9.385 2.31994 10.405 2.59994 10.875 3.38994L10.985 3.57994C11.885 5.14994 13.365 5.14994 14.275 3.57994L14.385 3.38994C14.855 2.59994 15.875 2.31994 16.665 2.78994L18.395 3.77994C19.305 4.29994 19.615 5.46994 19.095 6.36994C18.185 7.93994 18.925 9.21994 20.735 9.21994C21.775 9.21994 22.635 10.0699 22.635 11.1199V12.8799C22.635 13.9199 21.785 14.7799 20.735 14.7799C18.925 14.7799 18.185 16.0599 19.095 17.6299C19.615 18.5399 19.305 19.6999 18.395 20.2199L16.665 21.2099C15.875 21.6799 14.855 21.3999 14.385 20.6099L14.275 20.4199C13.375 18.8499 11.895 18.8499 10.985 20.4199L10.875 20.6099C10.405 21.3999 9.385 21.6799 8.595 21.2099L6.865 20.2199C5.955 19.6999 5.645 18.5299 6.165 17.6299C7.075 16.0599 6.335 14.7799 4.525 14.7799C3.475 14.7799 2.625 13.9199 2.625 12.8799Z" stroke="#8D8DA6" stroke-width="2" stroke-miterlimit="10" stroke-linecap="round" stroke-linejoin="round"/>
</svg>
